<?xml version="1.0"?>
<svg xmlns:rdf="http://www.w3.org/1999/02/22-rdf-syntax-ns#" xmlns="http://www.w3.org/2000/svg" xmlns:cc="http://creativecommons.org/ns#" xmlns:dc="http://purl.org/dc/elements/1.1/" xmlns:svg="http://www.w3.org/2000/svg" id="svg2" viewBox="0 0 198.97 308.04" version="1.1">
  <g id="layer1" transform="translate(-393.17 -337.88)">
    <g id="g3631">
      <path id="path2830" fill="#e6c6b0" d="m400.26 348.73c-5.905 12.508 20.182 42.104 27.541 64.296 3.0877 8.3923 6.1755 16.785 9.2632 25.177-3.1539 6.2801-8.9581 11.891-10.358 18.614l3.695 59.12c11.514 9.7484 24.315 18.175 34.998 28.776 8.1793 10.307 17.637 19.848 25.003 30.642l6.9456 17.364c8.3213 1.6359 16.626 3.9101 25.05 1.5305 5.0788-0.3859 11.043-3.3496 13.975 2.5148l43.864-4.0453c3.5299-5.8953 15.465-9.9535 9.449-17.669-3.9337-5.0446-12.779-1.2555-18.945-2.0898-10.693-1.0674-19.383-8.8001-27.636-14.949-4.2012-6.1992-8.6997-12.285-8.6338-20.115-2.5386-10.117-0.15825-21.341-6.4496-30.276-4.6334-9.4968-10.296-18.642-11.186-29.418-5.0986-13.648-12.181-26.625-15.363-40.952-3.4743-6.0942-9.9564-11.181-8.3096-18.99 0.46741-25.768-9.2204-50.206-12.785-75.333-1.2693-8.9469-10.651-3.3854-16.289-2.914-21.288 1.7795-58.395-2.7949-63.828 8.7156z"/>
      <path id="path2832" d="m491.73 388.33c-17.139 7.4048-36.01 10.028-54.296 13.188-4.1223 1.179-14.109-3.6948-13.819 2.0387 0.53534 10.427 7.0878 19.346 8.2795 29.649-4.8579 10.193-15.05 16.032-21.665 24.971-7.7798 7.3088-12.944 16.962-16.528 26.849-1.6665 7.6956 0.76815 14.952 4.7956 21.483 8.0325 15.78 15.143 32.101 18.532 49.57 7.2501 27.267 7.2384 55.791 9.1558 83.785 2.0508 3.5555 12.521 3.4422 11.55-2.3329 1.3116-32.485 2.6233-64.97 3.9349-97.456 6.7197 2.7761 10.854 9.58 16.159 14.35 10.335 13.412 19.721 27.941 24.283 44.397 5.197 14.126 8.6429 28.808 13.582 43.019 12.55 6.0585 27.262 3.9757 40.68 2.524 13.825-2.2598 28.14-4.0266 40.356-11.436 4.9154-12.521 9.75-25.107 12.76-38.241 6.9736-3.3632-1.4867-8.363-5.9539-6.5104-5.0289 2.1226-8.7726 4.4789-14.75 3.6075-8.2079 2.338-17.478 2.1815-26.201 2.8662-5.2801 1.5831-13.535-3.1173-6.1428-7.2548 6.5005-6.9974 13.046-13.953 19.518-20.977-3.0088-3.4851-8.6087-8.9248-13.024-4.7666-8.3532 9.9777-16.706 19.955-25.059 29.933-8.6416 3.8628-13.83-5.5271-19.437-10.331-4.7935-6.9374-9.5501-13.916-14.367-20.843 17.271-13.445 32.182-29.56 49.234-43.266-0.15278-6.5511-6.6252-11.624-7.214-18.43-7.4588-21.725-15.521-43.275-23.96-64.648-6.0615-5.5503-1.1534-14.486-4.8837-21.237-1.4749-5.0189-5.9481-10.211-2.0656-15.354-1.3225-2.9717-2.8543-5.7781-3.455-9.1479zm1.9631 49.234c7.5166-0.70608 6.852 9.0554 9.2363 13.981 3.8088 14.849 11.756 28.107 15.515 42.955 1.3063 5.4119 5.127 12.554-1.1162 16.208-13.372 11.715-26.341 23.86-38.869 36.474-5.4025 1.7205-6.4132-8.1272-11.318-10.264-10.408-9.7384-22.095-18.292-34.343-25.582-0.48423-19.356-0.96845-38.712-1.4527-58.068 3.4497-3.9535 4.6768-12.928 9.6556-6.5118 14.31-0.15869 28.795-0.7677 42.202-6.337 3.4164-1.238 6.9765-1.9566 10.49-2.8558z"/>
    </g>
  </g>
  <metadata>
    <rdf:RDF>
      <cc:Work>
        <dc:format>image/svg+xml</dc:format>
        <dc:type rdf:resource="http://purl.org/dc/dcmitype/StillImage"/>
        <cc:license rdf:resource="http://creativecommons.org/licenses/publicdomain/"/>
        <dc:publisher>
          <cc:Agent rdf:about="http://openclipart.org/">
            <dc:title>Openclipart</dc:title>
          </cc:Agent>
        </dc:publisher>
        <dc:title>High heeled shoe</dc:title>
        <dc:date>2010-08-09T04:03:22</dc:date>
        <dc:description>Foot wearing high heeled shoe.</dc:description>
        <dc:source>http://openclipart.org/detail/78703/high-heeled-shoe-by-laobc</dc:source>
        <dc:creator>
          <cc:Agent>
            <dc:title>laobc</dc:title>
          </cc:Agent>
        </dc:creator>
        <dc:subject>
          <rdf:Bag>
            <rdf:li>black</rdf:li>
            <rdf:li>bodypart</rdf:li>
            <rdf:li>clip art</rdf:li>
            <rdf:li>clipart</rdf:li>
            <rdf:li>clothing</rdf:li>
            <rdf:li>foot</rdf:li>
            <rdf:li>high heel</rdf:li>
            <rdf:li>shoe</rdf:li>
            <rdf:li>silhouette</rdf:li>
          </rdf:Bag>
        </dc:subject>
      </cc:Work>
      <cc:License rdf:about="http://creativecommons.org/licenses/publicdomain/">
        <cc:permits rdf:resource="http://creativecommons.org/ns#Reproduction"/>
        <cc:permits rdf:resource="http://creativecommons.org/ns#Distribution"/>
        <cc:permits rdf:resource="http://creativecommons.org/ns#DerivativeWorks"/>
      </cc:License>
    </rdf:RDF>
  </metadata>
</svg>
