<?xml version="1.0" encoding="UTF-8" standalone="no"?>
<!-- Created with Inkscape (http://www.inkscape.org/) -->

<svg
   width="40mm"
   height="40mm"
   viewBox="0 0 40 40"
   version="1.1"
   id="svg5"
   inkscape:version="1.1.1 (3bf5ae0d25, 2021-09-20)"
   sodipodi:docname="logo_stephany.svg"
   xmlns:inkscape="http://www.inkscape.org/namespaces/inkscape"
   xmlns:sodipodi="http://sodipodi.sourceforge.net/DTD/sodipodi-0.dtd"
   xmlns="http://www.w3.org/2000/svg"
   xmlns:svg="http://www.w3.org/2000/svg">
  <sodipodi:namedview
     id="namedview7"
     pagecolor="#ffffff"
     bordercolor="#666666"
     borderopacity="1.0"
     inkscape:pageshadow="2"
     inkscape:pageopacity="0.0"
     inkscape:pagecheckerboard="0"
     inkscape:document-units="mm"
     showgrid="false"
     width="40mm"
     inkscape:zoom="1.8886083"
     inkscape:cx="146.66885"
     inkscape:cy="124.43025"
     inkscape:window-width="1360"
     inkscape:window-height="716"
     inkscape:window-x="-8"
     inkscape:window-y="-8"
     inkscape:window-maximized="1"
     inkscape:current-layer="layer1" />
  <defs
     id="defs2">
    <clipPath
       id="Clip_1">
      <path
         d="M-0,2.457 L545.479,2.457 L545.479,671.79 L-0,671.79 z"
         id="path6254" />
    </clipPath>
    <clipPath
       id="Clip_2">
      <path
         d="M-0,2.457 L545.479,2.457 L545.479,671.79 L-0,671.79 z"
         id="path6257" />
    </clipPath>
  </defs>
  <g
     inkscape:label="Camada 1"
     inkscape:groupmode="layer"
     id="layer1">
    <rect
       style="opacity:0.648318;fill:#ff00ff;fill-opacity:1;stroke:#000000;stroke-width:0.31132;stroke-miterlimit:4;stroke-dasharray:none;stroke-opacity:1"
       id="rect7904"
       width="39.688679"
       height="39.688679"
       x="0.15566063"
       y="0.15566063"
       ry="7.4250002" />
    <g
       id="Layer_1"
       transform="matrix(0.04858955,0,0,0.05255798,6.747793,2.2814698)"
       style="opacity:0.76452599">
      <g
         clip-path="url(#Clip_1)"
         id="g6266">
        <path
           d="m 2.587,400.551 c 0,0 -1.897,7.581 3.794,11.368 5.687,3.797 37.425,33.166 150.671,40.75 113.232,7.581 13.265,-12.796 13.265,-12.796 L 2.587,400.551"
           fill="#731619"
           id="path6262" />
        <path
           d="M 541.737,135.324 C 536.886,149.04 412.78,243.67 390.061,285.852 367.346,328.038 321.919,443.772 245.122,452.427 168.333,461.076 41.783,431.872 16.894,415.646 -7.973,399.423 -4.739,386.442 22.312,370.219 49.35,353.99 93.695,351.823 109.924,342.094 c 16.226,-9.731 17.315,-12.975 28.116,-12.975 10.822,0 110.33,6.485 146.027,-36.782 35.686,-43.267 78.96,-159.005 97.342,-201.18 18.389,-42.189 53.011,-80.045 86.534,-88.7 0,0 97.591,65.803 73.794,132.867"
           fill="#d8232b"
           id="path6264" />
      </g>
      <path
         d="m 135.114,331.705 c -0.735,4.484 14.133,12.271 52.549,11.207 38.402,-1.071 28.812,-4.007 28.812,-4.007 l -16.814,-9.062 c 0,0 -33.327,4.267 -46.414,2.394 -13.058,-1.869 -17.86,-2.128 -18.133,-0.532"
         fill="#2f0500"
         id="path6268" />
      <path
         d="m 541.559,133.221 c 0,0 -49.819,132.079 -56.305,204.543 -6.489,72.482 -6.489,89.785 -6.489,89.785 l -15.62,1.814 c 0,0 8.046,-126.207 -0.602,-154.333 -8.652,-28.115 -19.481,-28.115 -46.512,-21.63 0,0 35.473,-38.787 56.259,-55.062 20.783,-16.285 66.434,-59.027 69.269,-65.117"
         fill="#a71f26"
         id="path6270" />
      <path
         d="m 441.809,249.946 c 0,0 25.637,2.422 25.637,38.794 0,32.97 -4.301,140.623 -4.301,140.623 l -5.408,-3.469 c 0,0 1.39,-122.955 -0.339,-139.58 -1.733,-16.628 -4.508,-34.289 -15.589,-36.368"
         fill="#881a1f"
         id="path6272" />
      <path
         d="m 474.498,15.939 c 0,0 60.806,48.643 58.107,70.266 -2.695,21.62 -5.4,40.537 -9.453,25.669 -4.05,-14.857 2.705,-39.189 -2.702,-25.669 -5.401,13.513 4.06,13.513 -10.815,25.669 -14.861,12.166 -18.312,20.646 -10.206,-2.321 8.116,-22.977 8.627,-47.088 3.206,-56.546 -5.408,-9.464 -28.137,-37.068 -28.137,-37.068"
         fill="#e36a63"
         id="path6274" />
      <g
         clip-path="url(#Clip_2)"
         id="g6280">
        <path
           d="m 352.88,344.306 c 0,0 2.696,-75.674 10.815,-116.211 8.106,-40.544 2.702,-94.602 12.156,-121.622 9.467,-27.023 55.412,-83.779 72.985,-89.19 17.556,-5.401 2.695,-6.752 4.05,32.434 1.351,39.19 17.573,64.866 14.854,89.187 -2.695,24.325 -16.209,48.647 -2.695,39.194 13.506,-9.461 33.782,-22.981 33.782,-22.981 0,0 -31.087,18.921 -66.217,56.766 -35.14,37.831 -60.809,91.889 -79.73,132.423"
           fill="#8a1a20"
           id="path6276" />
        <path
           d="m 89.824,641.603 c 0,0 0.903,23.428 22.526,27.034 21.619,3.597 94.58,8.116 145.043,-9.016 50.443,-17.119 74.774,-31.535 96.397,-63.963 21.623,-32.431 -263.966,45.945 -263.966,45.945"
           fill="#80181d"
           id="path6278" />
      </g>
      <path
         d="m 459.823,425.551 c 0,0 -1.047,12.463 0.689,13.86 1.729,1.375 4.159,2.404 10.735,1.375 6.587,-1.039 6.923,-0.692 6.923,-1.732 0,-1.04 -0.69,-16.275 -0.69,-16.275 l -17.657,2.772"
         fill="#6b1417"
         id="path6282" />
      <path
         d="m 129.458,485.754 c 15.141,-23.345 42.346,-47.757 59.465,-128.828 17.111,-81.084 11.7,-129.738 15.305,-174.776 3.605,-45.045 27.93,-91.889 45.049,-118.923 17.118,-27.027 38.738,-48.643 54.054,-39.637 15.316,9.009 67.578,53.151 75.67,85.582 8.113,32.434 10.808,55.86 -5.401,118.023 -16.222,62.16 -25.224,119.819 -9.905,192.787 15.306,72.961 39.634,156.755 -36.032,202.692 -75.677,45.962 -174.913,47.733 -219.828,36.946 -22.512,-5.393 -24.322,-43.246 -20.717,-70.259 3.609,-27.03 20.717,-70.287 42.34,-103.607"
         fill="#d8232b"
         id="path6284" />
      <path
         d="m 135.765,485.754 c -4.872,6.717 6.307,19.81 62.163,18.904 55.853,-0.903 84.68,3.619 103.611,-33.32 C 320.453,434.392 324.957,335.3 324.048,241.605 323.151,147.913 314.142,80.346 309.638,55.118 305.134,29.9 289.821,9.173 263.694,48.811 237.57,88.455 216.846,160.527 207.833,251.51 c -9.005,90.993 -15.305,155.858 -72.068,234.244"
         fill="#80181d"
         id="path6286" />
      <path
         d="m 155.592,501.967 c 0,0 59.448,-77.48 67.557,-161.256 8.12,-83.79 -0.896,-144.144 27.024,-177.481 27.937,-33.341 69.37,-21.623 69.37,-21.623 0,0 14.927,206.99 -3.994,286.268 -18.917,79.282 -30.226,71.383 -75.281,75.88 -36.855,3.693 -76.573,0.903 -84.676,-1.788"
         fill="#b8b9b8"
         id="path6288" />
      <path
         d="m 244.773,517.283 c 0,0 58.387,0.15 74.098,-36.995 8.806,-20.818 12.828,-49.886 15.089,-68.415 6.125,-49.913 9.46,-90.545 12.169,-60.805 2.706,29.729 4.053,74.319 9.447,99.995 5.4,25.676 18.928,83.776 -20.262,124.32 -39.179,40.544 -85.141,58.103 -67.571,41.891 17.581,-16.205 52.71,-14.85 70.262,-55.401 17.571,-40.534 13.528,-48.654 13.528,-48.654 0,0 -39.196,71.628 -95.949,87.85 -56.756,16.205 -62.167,27.017 -70.273,18.914 -8.099,-8.12 47.303,-13.513 58.114,-52.71 10.812,-39.179 1.348,-49.99 1.348,-49.99"
         fill="#e36a63"
         id="path6290" />
      <g
         id="g6296">
        <path
           d="m 331.258,72.685 c 0,0 5.663,92.057 12.421,133.945 6.748,41.891 5.156,72.821 14.602,29.574 9.468,-43.242 20.275,-59.464 22.97,-79.729 2.72,-20.269 -1.347,-43.246 -5.4,-50.002 -4.049,-6.755 -2.695,-16.212 -6.755,13.51 -4.053,29.733 0.623,57.775 -11.547,63.175 -12.152,5.412 -11.42,-29.389 -12.774,-53.718 -1.355,-24.321 12.159,-36.48 16.201,-36.48 4.067,0 -27.016,-54.054 -29.718,-20.275"
           fill="#e36a63"
           id="path6292" />
        <path
           d="m 135.317,532.151 c 0,0 -32.435,87.832 -9.468,104.051 22.971,16.212 82.443,16.212 82.443,16.212 0,0 -90.542,24.315 -105.41,-13.517 -14.864,-37.828 14.868,-89.183 32.435,-106.746"
           fill="#961c22"
           id="path6294" />
      </g>
      <path
         d="m 346.129,317.282 c 0,0 -8.124,68.915 4.053,112.157 12.166,43.246 22.974,99.999 -14.868,145.944 -37.831,45.944 -81.077,51.355 -66.22,51.355 14.858,0 79.741,-25.669 91.882,-64.866 12.18,-39.189 -4.042,-137.833 -8.096,-185.125 -4.045,-47.306 -6.751,-59.465 -6.751,-59.465"
         fill="#961c22"
         id="path6298" />
      <g
         id="g6304">
        <path
           d="m 422.888,251.408 c 0,0 12.722,-17.692 21.567,-23.771 8.848,-6.084 87.342,-74.078 96.176,-92.313 0,0 -49.738,50.298 -79.037,72.968 -29.298,22.659 -44.152,42.675 -45.563,45.108 l 6.857,-1.992"
           fill="#6b1417"
           id="path6300" />
        <path
           d="m 32.042,375.995 c 0,0 -32.725,16.036 0.644,35.934 33.366,19.898 71.229,21.819 71.229,21.819 0,0 -75.086,-28.875 -71.873,-41.072 3.213,-12.188 7.053,-16.681 14.109,-19.895 7.07,-3.205 -5.124,-3.853 -14.109,3.214"
           fill="#e36a63"
           id="path6302" />
      </g>
    </g>
    <text
       xml:space="preserve"
       style="font-style:italic;font-variant:normal;font-weight:normal;font-stretch:normal;font-size:11.2889px;line-height:99.6%;font-family:'Brush Script MT';-inkscape-font-specification:'Brush Script MT Italic';text-align:center;letter-spacing:0px;word-spacing:0px;text-anchor:middle;mix-blend-mode:multiply;fill:#000000;fill-opacity:1;stroke:#32cd32;stroke-width:0.165;stroke-linecap:butt;stroke-linejoin:miter;stroke-opacity:1;stroke-miterlimit:4;stroke-dasharray:none"
       x="19.889757"
       y="17.702084"
       id="text1023"><tspan
         sodipodi:role="line"
         id="tspan1021"
         style="font-style:italic;font-variant:normal;font-weight:normal;font-stretch:normal;font-size:11.2889px;font-family:'Brush Script MT';-inkscape-font-specification:'Brush Script MT Italic';text-align:center;text-anchor:middle;fill:#000000;stroke-width:0.165;stroke:#32cd32;stroke-miterlimit:4;stroke-dasharray:none"
         x="19.889755"
         y="17.702084">Stephany</tspan><tspan
         sodipodi:role="line"
         style="font-style:italic;font-variant:normal;font-weight:normal;font-stretch:normal;font-size:11.2889px;font-family:'Brush Script MT';-inkscape-font-specification:'Brush Script MT Italic';text-align:center;text-anchor:middle;fill:#000000;stroke-width:0.165;stroke:#32cd32;stroke-miterlimit:4;stroke-dasharray:none"
         x="19.889757"
         y="28.945827"
         id="tspan1025">Shoes</tspan></text>
  </g>
</svg>
